<?xml version="1.0" encoding="UTF-8"?>
<svg id="Layer_1" data-name="Layer 1" xmlns="http://www.w3.org/2000/svg" viewBox="0 0 500 500">
  <path d="M393.9,98.61c-24.67-19.84-59.61-29.78-104.81-29.78H102.36c-7.07,35.35,19.97,68.33,56.02,68.33h119.82c21.74,0,38.48,4.22,50.21,12.68s17.6,21.66,17.6,39.59c0,23.82-7.75,42.03-23.3,54.61-15.52,12.62-37.08,18.9-64.7,18.9h-71.18l5.56-27.76c6.52-32.52-18.36-62.88-51.53-62.88h-19.99l-51.78,258.86h23.2c35.55,0,66.15-25.12,73.07-59.99l8.23-41.45h81.31c35.87,0,67.02-6.04,93.41-18.13,26.41-12.07,46.75-29.23,61.09-51.5,14.31-22.25,21.48-48.73,21.48-79.44,0-34.86-12.33-62.2-37-82.04Z"/>
  <path d="M391.05,431.16h-45.26c-26.73,0-51.36-14.39-64.48-37.69l-29.45-52.31h3.07c28.81,0,55.01-3.84,78.23-11.43l57.9,101.42Z"/>
  <path d="M297.82,197.67c0,20.53-16.63,37.17-37.16,37.17s-37.16-16.63-37.16-37.17c0-1.76.12-3.49.36-5.19,2.46,1.27,5.25,1.98,8.2,1.98,9.91,0,17.95-8.03,17.95-17.95,0-4.87-1.94-9.31-5.09-12.54,4.78-2.24,10.11-3.49,15.75-3.49,20.53,0,37.16,16.65,37.16,37.19Z"/>
</svg>